<?xml version="1.0" standalone="no"?>
<!DOCTYPE svg PUBLIC "-//W3C//DTD SVG 20010904//EN"
 "http://www.w3.org/TR/2001/REC-SVG-20010904/DTD/svg10.dtd">
<svg version="1.0" xmlns="http://www.w3.org/2000/svg"
 width="500.000000pt" height="500.000000pt" viewBox="0 0 500.000000 500.000000"
 preserveAspectRatio="xMidYMid meet">

<g transform="translate(0.000000,500.000000) scale(0.100000,-0.100000)"
fill="#000000" stroke="none">
<path d="M2660 3415 c-104 -29 -127 -48 -150 -117 -14 -43 -19 -49 -25 -33
-22 63 -29 74 -56 85 -16 7 -47 10 -69 7 -27 -3 -51 1 -76 13 l-36 19 7 -27
c28 -117 98 -167 204 -146 25 5 29 9 20 21 -9 11 -9 12 4 7 13 -5 143 82 231
155 11 9 17 11 13 5 -3 -6 -56 -48 -117 -95 -60 -46 -110 -87 -110 -91 0 -15
61 -8 101 12 26 14 50 37 67 67 15 25 36 58 48 72 11 14 23 34 27 44 8 21 -16
22 -83 2z"/>
<path d="M1584 2388 c-3 -4 2 -8 10 -8 14 0 16 -16 16 -104 0 -91 -2 -105 -17
-109 -10 -3 7 -5 37 -4 30 0 45 2 33 4 -20 4 -23 11 -23 54 0 45 2 49 23 49
15 0 28 -9 35 -22 9 -21 11 -18 11 20 1 23 -3 42 -9 42 -5 0 -10 -4 -10 -10 0
-5 -11 -10 -25 -10 -23 0 -25 4 -25 45 l0 45 44 0 c45 0 60 -10 69 -45 3 -12
5 -4 6 18 0 20 -2 38 -6 38 -33 6 -165 3 -169 -3z"/>
<path d="M2439 2387 c6 -6 11 -31 11 -55 0 -41 -1 -43 -17 -31 -16 13 -16 13
0 -11 24 -35 22 -95 -3 -113 -19 -13 -17 -14 27 -14 26 0 40 2 31 4 -16 4 -18
18 -18 113 0 102 -1 108 -21 113 -17 4 -19 3 -10 -6z"/>
<path d="M2540 2287 c0 -83 -4 -117 -12 -120 -7 -3 5 -5 27 -6 23 0 33 3 24 7
-14 6 -16 23 -15 110 1 74 -2 106 -11 114 -11 8 -13 -12 -13 -105z"/>
<path d="M2880 2389 c0 -4 8 -9 18 -11 13 -4 30 -37 56 -112 21 -58 41 -106
45 -106 4 0 22 48 40 106 24 80 37 107 52 111 30 8 12 22 -27 21 -34 -1 -61
-18 -30 -18 9 0 16 -7 16 -16 0 -21 -30 -127 -39 -137 -4 -4 -18 23 -31 60
-13 38 -25 74 -28 81 -2 6 3 12 12 12 9 0 16 4 16 9 0 5 -22 9 -50 8 -27 -1
-50 -5 -50 -8z"/>
<path d="M1942 2368 c6 -18 28 -21 28 -4 0 9 -7 16 -16 16 -9 0 -14 -5 -12
-12z"/>
<path d="M1798 2303 c8 -3 12 -27 12 -68 0 -41 -4 -65 -12 -68 -7 -3 5 -6 27
-6 26 0 35 2 26 8 -8 6 -12 25 -11 57 4 80 3 84 -27 83 -16 0 -22 -3 -15 -6z"/>
<path d="M1855 2300 c-3 -6 1 -7 9 -4 18 7 21 14 7 14 -6 0 -13 -4 -16 -10z"/>
<path d="M1886 2294 c-8 -22 1 -31 16 -16 9 9 9 15 1 23 -7 7 -12 5 -17 -7z"/>
<path d="M1938 2303 c8 -3 12 -27 12 -68 0 -41 -4 -65 -12 -68 -7 -3 3 -5 22
-5 19 0 29 2 23 5 -9 3 -13 28 -13 74 0 65 -1 69 -22 68 -13 0 -17 -3 -10 -6z"/>
<path d="M2034 2279 c-19 -38 -11 -94 16 -109 27 -15 34 -12 16 6 -9 8 -16 24
-16 35 0 16 7 19 45 19 36 0 45 3 45 18 0 22 -27 62 -43 62 -8 0 -8 -3 1 -12
7 -7 12 -22 12 -35 0 -19 -5 -23 -30 -23 -32 0 -38 16 -20 51 7 13 7 19 1 19
-6 0 -18 -14 -27 -31z"/>
<path d="M2178 2303 c8 -3 12 -27 12 -68 0 -41 -4 -65 -12 -68 -7 -3 3 -5 22
-5 19 0 29 2 23 5 -27 10 -11 114 21 135 8 6 7 8 -1 8 -7 0 -17 -8 -22 -17
-10 -17 -10 -17 -11 0 0 11 -8 17 -22 16 -13 0 -17 -3 -10 -6z"/>
<path d="M2268 2298 c16 -16 16 -125 0 -131 -7 -3 3 -5 22 -5 19 0 29 2 23 5
-8 3 -13 25 -13 58 0 64 -7 85 -28 85 -12 0 -13 -3 -4 -12z"/>
<path d="M2371 2296 c-30 -36 -18 -122 17 -134 11 -3 12 0 3 16 -14 26 -14 87
-1 113 12 22 -2 26 -19 5z"/>
<path d="M2611 2303 c17 -4 66 -136 61 -167 -1 -11 -8 -26 -14 -34 -10 -11
-13 -10 -20 8 -8 22 -28 19 -28 -5 0 -16 25 -26 44 -19 8 3 29 49 47 102 17
54 38 103 47 110 13 10 11 12 -19 12 -24 0 -30 -3 -20 -9 12 -8 12 -16 1 -55
-7 -25 -16 -46 -20 -46 -11 0 -33 87 -25 99 4 7 -7 11 -32 10 -21 -1 -31 -3
-22 -6z"/>
<path d="M3155 2290 c-11 -12 -19 -36 -19 -55 0 -19 8 -43 19 -55 24 -27 40
-26 21 2 -27 38 -20 48 29 48 36 0 45 3 45 18 0 22 -27 62 -43 62 -8 0 -8 -3
1 -12 7 -7 12 -22 12 -35 0 -19 -5 -23 -30 -23 -34 0 -38 14 -14 48 19 28 3
29 -21 2z"/>
<path d="M3304 2285 c-15 -23 -15 -27 -1 -49 14 -21 14 -25 -1 -40 -16 -16
-16 -18 2 -32 11 -8 39 -14 63 -14 31 0 45 -5 50 -16 14 -36 -63 -59 -102 -30
-17 12 -18 16 -5 32 13 15 13 17 0 12 -8 -2 -15 -16 -15 -29 0 -52 123 -48
133 4 6 31 -17 47 -69 47 -56 0 -72 15 -32 31 25 9 26 12 11 20 -21 11 -24 59
-6 77 9 9 9 12 0 12 -6 0 -19 -11 -28 -25z"/>
<path d="M3369 2297 c15 -15 14 -60 -1 -75 -8 -8 -9 -12 -1 -12 23 0 43 32 40
63 -2 26 -7 32 -26 34 -17 1 -20 -2 -12 -10z"/>
<path d="M3420 2290 c0 -11 5 -20 10 -20 6 0 10 9 10 20 0 11 -4 20 -10 20 -5
0 -10 -9 -10 -20z"/>
<path d="M3240 2202 c0 -6 -7 -18 -16 -26 -8 -9 -11 -16 -5 -16 13 0 35 39 27
48 -3 3 -6 0 -6 -6z"/>
<path d="M2109 2173 c-13 -16 -12 -17 4 -4 16 13 21 21 13 21 -2 0 -10 -8 -17
-17z"/>
</g>
</svg>
