<?xml version="1.0" standalone="no"?>
<!DOCTYPE svg PUBLIC "-//W3C//DTD SVG 20010904//EN"
 "http://www.w3.org/TR/2001/REC-SVG-20010904/DTD/svg10.dtd">
<svg version="1.0" xmlns="http://www.w3.org/2000/svg"
 width="1420.000000pt" height="590.000000pt" viewBox="0 0 1420.000000 590.000000"
 preserveAspectRatio="xMidYMid meet">
<metadata>
Created by potrace 1.16, written by Peter Selinger 2001-2019
</metadata>
<g transform="translate(0.000000,590.000000) scale(0.100000,-0.100000)"
fill="#000000" stroke="none">
<path d="M6890 3522 l0 -442 69 0 70 0 -6 283 -6 282 99 -91 c54 -51 110 -104
124 -119 14 -15 109 -108 213 -207 l187 -180 0 441 0 442 -67 -3 -68 -3 4
-285 3 -285 -88 85 c-49 47 -189 184 -311 305 l-223 220 0 -443z"/>
<path d="M3567 3923 c-4 -3 -7 -195 -7 -425 l0 -418 70 0 70 0 0 175 0 175
165 0 165 0 0 65 0 65 -165 0 -165 0 0 120 0 120 190 0 190 0 0 65 0 65 -253
0 c-140 0 -257 -3 -260 -7z"/>
<path d="M4438 3924 c-5 -4 -8 -196 -8 -426 l0 -418 70 0 70 0 0 150 0 151 68
-3 67 -3 97 -147 98 -148 75 0 c41 0 75 2 75 4 0 2 -45 75 -99 162 l-100 158
43 37 c60 53 88 122 88 215 0 121 -61 210 -171 250 -49 18 -359 33 -373 18z
m330 -144 c33 -15 47 -29 62 -62 25 -55 25 -82 0 -133 -29 -60 -63 -75 -167
-78 l-88 -2 -3 148 -3 147 78 0 c56 0 90 -6 121 -20z"/>
<path d="M5397 3923 c-4 -3 -7 -195 -7 -425 l0 -418 70 0 70 0 0 425 0 425
-63 0 c-35 0 -67 -3 -70 -7z"/>
<path d="M5940 3505 l0 -425 290 0 290 0 0 65 0 65 -220 0 -220 0 0 115 0 115
190 0 190 0 0 65 0 65 -190 0 -190 0 0 115 0 115 210 0 210 0 0 65 0 65 -280
0 -280 0 0 -425z"/>
<path d="M8050 3505 l0 -425 168 0 c239 0 331 28 428 132 161 173 140 471 -45
621 -88 72 -196 97 -413 97 l-138 0 0 -425z m368 280 c74 -22 131 -70 167
-140 26 -51 30 -69 29 -139 0 -134 -51 -219 -159 -267 -38 -17 -75 -24 -157
-27 l-108 -5 0 297 0 296 88 0 c50 0 111 -7 140 -15z"/>
<path d="M9120 3505 l0 -425 275 0 275 0 0 65 0 65 -210 0 -210 0 0 360 0 360
-65 0 -65 0 0 -425z"/>
<path d="M9968 3878 c16 -29 86 -157 156 -284 l126 -232 0 -141 0 -141 70 0
70 0 0 139 0 140 155 280 c85 154 155 283 155 286 0 3 -36 5 -80 5 l-80 0 -64
-127 c-35 -71 -84 -165 -108 -210 l-44 -82 -109 209 -110 210 -83 0 -84 0 30
-52z"/>
<path d="M8034 2306 c-217 -50 -349 -236 -331 -471 13 -173 111 -301 276 -357
124 -42 313 -24 419 42 l32 20 -2 172 -3 173 -147 3 -148 3 0 -66 0 -65 80 0
80 0 0 -74 0 -74 -31 -11 c-47 -16 -178 -13 -232 5 -57 19 -131 83 -159 138
-29 57 -35 165 -14 240 47 159 234 237 422 174 l71 -23 21 59 c25 69 27 67
-65 96 -85 26 -194 33 -269 16z"/>
<path d="M5712 2302 c42 -114 375 -869 380 -864 9 9 368 852 368 864 0 5 -34
8 -76 6 l-76 -3 -104 -269 c-57 -147 -105 -271 -108 -274 -3 -2 -9 4 -13 14
-4 10 -53 134 -109 274 l-102 255 -82 3 c-47 2 -80 -1 -78 -6z"/>
<path d="M6810 1885 l0 -425 290 0 290 0 0 65 0 65 -225 0 -225 0 0 115 0 115
190 0 190 0 0 65 0 65 -190 0 -190 0 0 115 0 115 215 0 215 0 0 65 0 65 -280
0 -280 0 0 -425z"/>
</g>
</svg>
